<svg _ngcontent-ng-c4107163698="" xmlns="http://www.w3.org/2000/svg" width="116" height="60" fill="none" class="theme-illustration ng-star-inserted"><g _ngcontent-ng-c4107163698="" clip-path="url(#clip0_1072_6394)"><g _ngcontent-ng-c4107163698="" filter="url(#filter0_d_1072_6394)"><g _ngcontent-ng-c4107163698="" clip-path="url(#clip1_1072_6394)"><path _ngcontent-ng-c4107163698="" fill="url(#paint0_radial_1072_6394)" d="M0 10C0 4.477 4.477 0 10 0h48v60H10C4.477 60 0 55.523 0 50V10Z"></path><g _ngcontent-ng-c4107163698="" filter="url(#filter1_d_1072_6394)"><mask _ngcontent-ng-c4107163698="" id="path-4-inside-1_1072_6394" fill="#fff"><path _ngcontent-ng-c4107163698="" d="M8 16a8 8 0 0 1 8-8h42v52H8V16Z"></path></mask><path _ngcontent-ng-c4107163698="" fill="#F9F9F9" d="M8 16a8 8 0 0 1 8-8h42v52H8V16Z"></path><path _ngcontent-ng-c4107163698="" fill="#fff" d="M6 16c0-5.523 4.477-10 10-10h42v4H16a6 6 0 0 0-6 6H6Zm52 44H8h50ZM6 60V16c0-5.523 4.477-10 10-10v4a6 6 0 0 0-6 6v44H6ZM58 8v52V8Z" mask="url(#path-4-inside-1_1072_6394)"></path></g><mask _ngcontent-ng-c4107163698="" id="path-6-inside-2_1072_6394" fill="#fff"><path _ngcontent-ng-c4107163698="" d="M35.818 24a8 8 0 0 1 8-8h13.857v44H35.818V24Z"></path></mask><path _ngcontent-ng-c4107163698="" fill="url(#paint1_linear_1072_6394)" d="M35.818 24a8 8 0 0 1 8-8h13.857v44H35.818V24Z"></path><path _ngcontent-ng-c4107163698="" fill="#F1F1F1" d="M34.818 24a9 9 0 0 1 9-9h13.857v2H43.818a7 7 0 0 0-7 7h-2Zm22.857 36H35.818h21.857Zm-22.857 0V24a9 9 0 0 1 9-9v2a7 7 0 0 0-7 7v36h-2Zm22.857-44v44-44Z" mask="url(#path-6-inside-2_1072_6394)"></path><rect _ngcontent-ng-c4107163698="" width="11.922" height="12" x="16.271" y="16" fill="var(--cu-appearance-switcher-lightmode-primary)" rx="3"></rect><g _ngcontent-ng-c4107163698="" filter="url(#filter2_d_1072_6394)"><rect _ngcontent-ng-c4107163698="" width="11.922" height="12" x="16.271" y="40" fill="#fff" rx="3"></rect></g><path _ngcontent-ng-c4107163698="" fill="#BBB" d="M44 26a2 2 0 0 1 2-2h12v6H46a2 2 0 0 1-2-2v-2Z"></path><path _ngcontent-ng-c4107163698="" fill="#D9D9D9" d="M44 36a2 2 0 0 1 2-2h12v6H46a2 2 0 0 1-2-2v-2Z"></path><rect _ngcontent-ng-c4107163698="" width="6.954" height="7" x="44.089" y="49" fill="var(--cu-appearance-switcher-lightmode-primary)" rx="3.477"></rect><path _ngcontent-ng-c4107163698="" fill="#D9D9D9" d="M55 52.5a2.5 2.5 0 0 1 2.5-2.5h.5v5h-.5a2.5 2.5 0 0 1-2.5-2.5Z"></path><g _ngcontent-ng-c4107163698="" filter="url(#filter3_d_1072_6394)"><path _ngcontent-ng-c4107163698="" fill="#fff" d="M16.271 59a3 3 0 0 1 3-3h5.922a3 3 0 0 1 3 3v1H16.271v-1Z"></path></g><mask _ngcontent-ng-c4107163698="" id="path-15-inside-3_1072_6394" fill="#fff"><path _ngcontent-ng-c4107163698="" d="M8 16a8 8 0 0 1 8-8h42v52H8V16Z"></path></mask><path _ngcontent-ng-c4107163698="" fill="#CECECE" d="M7 16a9 9 0 0 1 9-9h42v2H16a7 7 0 0 0-7 7H7Zm51 44H8h50ZM7 60V16a9 9 0 0 1 9-9v2a7 7 0 0 0-7 7v44H7ZM58 8v52V8Z" mask="url(#path-15-inside-3_1072_6394)"></path></g></g><g _ngcontent-ng-c4107163698="" clip-path="url(#clip2_1072_6394)" filter="url(#filter4_d_1072_6394)"><path _ngcontent-ng-c4107163698="" fill="url(#paint2_radial_1072_6394)" d="M0 0h58v60H0z" transform="translate(58)"></path><g _ngcontent-ng-c4107163698="" filter="url(#filter5_d_1072_6394)"><mask _ngcontent-ng-c4107163698="" id="path-17-inside-4_1072_6394" fill="#fff"><path _ngcontent-ng-c4107163698="" d="M66 16a8 8 0 0 1 8-8h42v52H66V16Z"></path></mask><path _ngcontent-ng-c4107163698="" fill="#202020" d="M66 16a8 8 0 0 1 8-8h42v52H66V16Z"></path><path _ngcontent-ng-c4107163698="" fill="#1D1D1D" d="M64 16c0-5.523 4.477-10 10-10h42v4H74a6 6 0 0 0-6 6h-4Zm52 44H66h50Zm-52 0V16c0-5.523 4.477-10 10-10v4a6 6 0 0 0-6 6v44h-4Zm52-52v52V8Z" mask="url(#path-17-inside-4_1072_6394)"></path></g><mask _ngcontent-ng-c4107163698="" id="path-19-inside-5_1072_6394" fill="#fff"><path _ngcontent-ng-c4107163698="" d="M93.818 24a8 8 0 0 1 8-8h13.857v44H93.818V24Z"></path></mask><path _ngcontent-ng-c4107163698="" fill="url(#paint3_linear_1072_6394)" d="M93.818 24a8 8 0 0 1 8-8h13.857v44H93.818V24Z"></path><path _ngcontent-ng-c4107163698="" fill="#282828" d="M92.818 24a9 9 0 0 1 9-9h13.857v2h-13.857a7 7 0 0 0-7 7h-2Zm22.857 36H93.818h21.857Zm-22.857 0V24a9 9 0 0 1 9-9v2a7 7 0 0 0-7 7v36h-2Zm22.857-44v44-44Z" mask="url(#path-19-inside-5_1072_6394)"></path><rect _ngcontent-ng-c4107163698="" width="11.922" height="12" x="74.272" y="16" fill="var(--cu-appearance-switcher-darkmode-primary)" rx="3"></rect><g _ngcontent-ng-c4107163698="" filter="url(#filter6_d_1072_6394)"><rect _ngcontent-ng-c4107163698="" width="11.922" height="12" x="74.272" y="40" fill="#181818" rx="3"></rect></g><path _ngcontent-ng-c4107163698="" fill="#606060" d="M101.766 26a2 2 0 0 1 2-2h11.909v6h-11.909a2 2 0 0 1-2-2v-2Z"></path><path _ngcontent-ng-c4107163698="" fill="#3A3A3A" d="M101.766 36a2 2 0 0 1 2-2h12v6h-12a2 2 0 0 1-2-2v-2Z"></path><rect _ngcontent-ng-c4107163698="" width="6.954" height="7" x="102.089" y="49" fill="var(--cu-appearance-switcher-darkmode-primary)" rx="3.477"></rect><path _ngcontent-ng-c4107163698="" fill="#3A3A3A" d="M112.694 52.5a2.5 2.5 0 0 1 2.5-2.5h.481v5h-.481a2.5 2.5 0 0 1-2.5-2.5Z"></path><g _ngcontent-ng-c4107163698="" filter="url(#filter7_d_1072_6394)"><path _ngcontent-ng-c4107163698="" fill="#181818" d="M74.272 59a3 3 0 0 1 3-3h5.921a3 3 0 0 1 3 3v1H74.272v-1Z"></path></g><mask _ngcontent-ng-c4107163698="" id="path-28-inside-6_1072_6394" fill="#fff"><path _ngcontent-ng-c4107163698="" d="M66 16a8 8 0 0 1 8-8h42v52H66V16Z"></path></mask><path _ngcontent-ng-c4107163698="" fill="#484848" d="M65 16a9 9 0 0 1 9-9h42v2H74a7 7 0 0 0-7 7h-2Zm51 44H66h50Zm-51 0V16a9 9 0 0 1 9-9v2a7 7 0 0 0-7 7v44h-2Zm51-52v52V8Z" mask="url(#path-28-inside-6_1072_6394)"></path></g></g><path _ngcontent-ng-c4107163698="" stroke="#000" stroke-opacity=".055" d="M1.16 10a9.5 9.5 0 0 1 9.5-9.5h95.33a9.5 9.5 0 0 1 9.5 9.5v40a9.5 9.5 0 0 1-9.5 9.5H10.66a9.5 9.5 0 0 1-9.5-9.5V10Z"></path><defs _ngcontent-ng-c4107163698=""><filter _ngcontent-ng-c4107163698="" id="filter0_d_1072_6394" width="70" height="72" x="-6" y="-6" color-interpolation-filters="sRGB" filterUnits="userSpaceOnUse"><feFlood _ngcontent-ng-c4107163698="" flood-opacity="0" result="BackgroundImageFix"></feFlood><feColorMatrix _ngcontent-ng-c4107163698="" in="SourceAlpha" result="hardAlpha" values="0 0 0 0 0 0 0 0 0 0 0 0 0 0 0 0 0 0 127 0"></feColorMatrix><feOffset _ngcontent-ng-c4107163698=""></feOffset><feGaussianBlur _ngcontent-ng-c4107163698="" stdDeviation="3"></feGaussianBlur><feComposite _ngcontent-ng-c4107163698="" in2="hardAlpha" operator="out"></feComposite><feColorMatrix _ngcontent-ng-c4107163698="" values="0 0 0 0 0 0 0 0 0 0 0 0 0 0 0 0 0 0 0.03 0"></feColorMatrix><feBlend _ngcontent-ng-c4107163698="" in2="BackgroundImageFix" result="effect1_dropShadow_1072_6394"></feBlend><feBlend _ngcontent-ng-c4107163698="" in="SourceGraphic" in2="effect1_dropShadow_1072_6394" result="shape"></feBlend></filter><filter _ngcontent-ng-c4107163698="" id="filter1_d_1072_6394" width="62" height="64" x="2" y="2" color-interpolation-filters="sRGB" filterUnits="userSpaceOnUse"><feFlood _ngcontent-ng-c4107163698="" flood-opacity="0" result="BackgroundImageFix"></feFlood><feColorMatrix _ngcontent-ng-c4107163698="" in="SourceAlpha" result="hardAlpha" values="0 0 0 0 0 0 0 0 0 0 0 0 0 0 0 0 0 0 127 0"></feColorMatrix><feOffset _ngcontent-ng-c4107163698=""></feOffset><feGaussianBlur _ngcontent-ng-c4107163698="" stdDeviation="3"></feGaussianBlur><feComposite _ngcontent-ng-c4107163698="" in2="hardAlpha" operator="out"></feComposite><feColorMatrix _ngcontent-ng-c4107163698="" values="0 0 0 0 0 0 0 0 0 0 0 0 0 0 0 0 0 0 0.03 0"></feColorMatrix><feBlend _ngcontent-ng-c4107163698="" in2="BackgroundImageFix" result="effect1_dropShadow_1072_6394"></feBlend><feBlend _ngcontent-ng-c4107163698="" in="SourceGraphic" in2="effect1_dropShadow_1072_6394" result="shape"></feBlend></filter><filter _ngcontent-ng-c4107163698="" id="filter2_d_1072_6394" width="23.922" height="24" x="10.271" y="34" color-interpolation-filters="sRGB" filterUnits="userSpaceOnUse"><feFlood _ngcontent-ng-c4107163698="" flood-opacity="0" result="BackgroundImageFix"></feFlood><feColorMatrix _ngcontent-ng-c4107163698="" in="SourceAlpha" result="hardAlpha" values="0 0 0 0 0 0 0 0 0 0 0 0 0 0 0 0 0 0 127 0"></feColorMatrix><feOffset _ngcontent-ng-c4107163698=""></feOffset><feGaussianBlur _ngcontent-ng-c4107163698="" stdDeviation="3"></feGaussianBlur><feComposite _ngcontent-ng-c4107163698="" in2="hardAlpha" operator="out"></feComposite><feColorMatrix _ngcontent-ng-c4107163698="" values="0 0 0 0 0 0 0 0 0 0 0 0 0 0 0 0 0 0 0.03 0"></feColorMatrix><feBlend _ngcontent-ng-c4107163698="" in2="BackgroundImageFix" result="effect1_dropShadow_1072_6394"></feBlend><feBlend _ngcontent-ng-c4107163698="" in="SourceGraphic" in2="effect1_dropShadow_1072_6394" result="shape"></feBlend></filter><filter _ngcontent-ng-c4107163698="" id="filter3_d_1072_6394" width="23.922" height="16" x="10.271" y="50" color-interpolation-filters="sRGB" filterUnits="userSpaceOnUse"><feFlood _ngcontent-ng-c4107163698="" flood-opacity="0" result="BackgroundImageFix"></feFlood><feColorMatrix _ngcontent-ng-c4107163698="" in="SourceAlpha" result="hardAlpha" values="0 0 0 0 0 0 0 0 0 0 0 0 0 0 0 0 0 0 127 0"></feColorMatrix><feOffset _ngcontent-ng-c4107163698=""></feOffset><feGaussianBlur _ngcontent-ng-c4107163698="" stdDeviation="3"></feGaussianBlur><feComposite _ngcontent-ng-c4107163698="" in2="hardAlpha" operator="out"></feComposite><feColorMatrix _ngcontent-ng-c4107163698="" values="0 0 0 0 0 0 0 0 0 0 0 0 0 0 0 0 0 0 0.03 0"></feColorMatrix><feBlend _ngcontent-ng-c4107163698="" in2="BackgroundImageFix" result="effect1_dropShadow_1072_6394"></feBlend><feBlend _ngcontent-ng-c4107163698="" in="SourceGraphic" in2="effect1_dropShadow_1072_6394" result="shape"></feBlend></filter><filter _ngcontent-ng-c4107163698="" id="filter4_d_1072_6394" width="70" height="72" x="52" y="-6" color-interpolation-filters="sRGB" filterUnits="userSpaceOnUse"><feFlood _ngcontent-ng-c4107163698="" flood-opacity="0" result="BackgroundImageFix"></feFlood><feColorMatrix _ngcontent-ng-c4107163698="" in="SourceAlpha" result="hardAlpha" values="0 0 0 0 0 0 0 0 0 0 0 0 0 0 0 0 0 0 127 0"></feColorMatrix><feOffset _ngcontent-ng-c4107163698=""></feOffset><feGaussianBlur _ngcontent-ng-c4107163698="" stdDeviation="3"></feGaussianBlur><feComposite _ngcontent-ng-c4107163698="" in2="hardAlpha" operator="out"></feComposite><feColorMatrix _ngcontent-ng-c4107163698="" values="0 0 0 0 0 0 0 0 0 0 0 0 0 0 0 0 0 0 0.03 0"></feColorMatrix><feBlend _ngcontent-ng-c4107163698="" in2="BackgroundImageFix" result="effect1_dropShadow_1072_6394"></feBlend><feBlend _ngcontent-ng-c4107163698="" in="SourceGraphic" in2="effect1_dropShadow_1072_6394" result="shape"></feBlend></filter><filter _ngcontent-ng-c4107163698="" id="filter5_d_1072_6394" width="62" height="64" x="60" y="2" color-interpolation-filters="sRGB" filterUnits="userSpaceOnUse"><feFlood _ngcontent-ng-c4107163698="" flood-opacity="0" result="BackgroundImageFix"></feFlood><feColorMatrix _ngcontent-ng-c4107163698="" in="SourceAlpha" result="hardAlpha" values="0 0 0 0 0 0 0 0 0 0 0 0 0 0 0 0 0 0 127 0"></feColorMatrix><feOffset _ngcontent-ng-c4107163698=""></feOffset><feGaussianBlur _ngcontent-ng-c4107163698="" stdDeviation="3"></feGaussianBlur><feComposite _ngcontent-ng-c4107163698="" in2="hardAlpha" operator="out"></feComposite><feColorMatrix _ngcontent-ng-c4107163698="" values="0 0 0 0 0 0 0 0 0 0 0 0 0 0 0 0 0 0 0.03 0"></feColorMatrix><feBlend _ngcontent-ng-c4107163698="" in2="BackgroundImageFix" result="effect1_dropShadow_1072_6394"></feBlend><feBlend _ngcontent-ng-c4107163698="" in="SourceGraphic" in2="effect1_dropShadow_1072_6394" result="shape"></feBlend></filter><filter _ngcontent-ng-c4107163698="" id="filter6_d_1072_6394" width="23.922" height="24" x="68.272" y="34" color-interpolation-filters="sRGB" filterUnits="userSpaceOnUse"><feFlood _ngcontent-ng-c4107163698="" flood-opacity="0" result="BackgroundImageFix"></feFlood><feColorMatrix _ngcontent-ng-c4107163698="" in="SourceAlpha" result="hardAlpha" values="0 0 0 0 0 0 0 0 0 0 0 0 0 0 0 0 0 0 127 0"></feColorMatrix><feOffset _ngcontent-ng-c4107163698=""></feOffset><feGaussianBlur _ngcontent-ng-c4107163698="" stdDeviation="3"></feGaussianBlur><feComposite _ngcontent-ng-c4107163698="" in2="hardAlpha" operator="out"></feComposite><feColorMatrix _ngcontent-ng-c4107163698="" values="0 0 0 0 0 0 0 0 0 0 0 0 0 0 0 0 0 0 0.03 0"></feColorMatrix><feBlend _ngcontent-ng-c4107163698="" in2="BackgroundImageFix" result="effect1_dropShadow_1072_6394"></feBlend><feBlend _ngcontent-ng-c4107163698="" in="SourceGraphic" in2="effect1_dropShadow_1072_6394" result="shape"></feBlend></filter><filter _ngcontent-ng-c4107163698="" id="filter7_d_1072_6394" width="23.922" height="16" x="68.272" y="50" color-interpolation-filters="sRGB" filterUnits="userSpaceOnUse"><feFlood _ngcontent-ng-c4107163698="" flood-opacity="0" result="BackgroundImageFix"></feFlood><feColorMatrix _ngcontent-ng-c4107163698="" in="SourceAlpha" result="hardAlpha" values="0 0 0 0 0 0 0 0 0 0 0 0 0 0 0 0 0 0 127 0"></feColorMatrix><feOffset _ngcontent-ng-c4107163698=""></feOffset><feGaussianBlur _ngcontent-ng-c4107163698="" stdDeviation="3"></feGaussianBlur><feComposite _ngcontent-ng-c4107163698="" in2="hardAlpha" operator="out"></feComposite><feColorMatrix _ngcontent-ng-c4107163698="" values="0 0 0 0 0 0 0 0 0 0 0 0 0 0 0 0 0 0 0.03 0"></feColorMatrix><feBlend _ngcontent-ng-c4107163698="" in2="BackgroundImageFix" result="effect1_dropShadow_1072_6394"></feBlend><feBlend _ngcontent-ng-c4107163698="" in="SourceGraphic" in2="effect1_dropShadow_1072_6394" result="shape"></feBlend></filter><clipPath _ngcontent-ng-c4107163698="" id="clip0_1072_6394"><path _ngcontent-ng-c4107163698="" fill="#fff" d="M.66 10c0-5.523 4.477-10 10-10h95.33c5.523 0 10 4.477 10 10v40c0 5.523-4.477 10-10 10H10.66c-5.523 0-10-4.477-10-10V10Z"></path></clipPath><clipPath _ngcontent-ng-c4107163698="" id="clip1_1072_6394"><path _ngcontent-ng-c4107163698="" fill="#fff" d="M0 10C0 4.477 4.477 0 10 0h48v60H10C4.477 60 0 55.523 0 50V10Z"></path></clipPath><clipPath _ngcontent-ng-c4107163698="" id="clip2_1072_6394"><path _ngcontent-ng-c4107163698="" fill="#fff" d="M58 0h58v60H58z"></path></clipPath><radialGradient _ngcontent-ng-c4107163698="" id="paint0_radial_1072_6394" cx="0" cy="0" r="1" gradientTransform="matrix(27.54997 59.99997 -110.29564 50.64406 1.45 0)" gradientUnits="userSpaceOnUse"><stop _ngcontent-ng-c4107163698="" stop-color="#E8E8E8"></stop><stop _ngcontent-ng-c4107163698="" offset="1" stop-color="#CECECE"></stop></radialGradient><radialGradient _ngcontent-ng-c4107163698="" id="paint2_radial_1072_6394" cx="0" cy="0" r="1" gradientTransform="matrix(27.54997 59.99997 -110.29564 50.64406 1.45 0)" gradientUnits="userSpaceOnUse"><stop _ngcontent-ng-c4107163698="" stop-color="#2A2A2A"></stop><stop _ngcontent-ng-c4107163698="" offset="1" stop-color="#484848"></stop></radialGradient><linearGradient _ngcontent-ng-c4107163698="" id="paint1_linear_1072_6394" x1="38.55" x2="95.264" y1="19.438" y2="73.988" gradientUnits="userSpaceOnUse"><stop _ngcontent-ng-c4107163698="" stop-color="#fff"></stop><stop _ngcontent-ng-c4107163698="" offset="1" stop-color="#F9F9F9"></stop></linearGradient><linearGradient _ngcontent-ng-c4107163698="" id="paint3_linear_1072_6394" x1="96.55" x2="153.264" y1="19.438" y2="73.988" gradientUnits="userSpaceOnUse"><stop _ngcontent-ng-c4107163698="" stop-color="#181818"></stop><stop _ngcontent-ng-c4107163698="" offset="1" stop-color="#282828"></stop></linearGradient></defs></svg>