<svg _ngcontent-ng-c4107163698="" xmlns="http://www.w3.org/2000/svg" width="116" height="60" fill="none" viewBox="6 6 116 60" class="theme-illustration ng-star-inserted"><g _ngcontent-ng-c4107163698="" filter="url(#filter0_d_1072_6379)"><g _ngcontent-ng-c4107163698="" clip-path="url(#clip0_1072_6379)"><path _ngcontent-ng-c4107163698="" fill="url(#paint0_radial_1072_6379)" d="M6.33 16c0-5.523 4.477-10 10-10h95.33c5.523 0 10 4.477 10 10v40c0 5.523-4.477 10-10 10H16.33c-5.523 0-10-4.477-10-10V16Z"></path><g _ngcontent-ng-c4107163698="" filter="url(#filter1_d_1072_6379)"><mask _ngcontent-ng-c4107163698="" id="path-3-inside-1_1072_6379" fill="#fff"><path _ngcontent-ng-c4107163698="" d="M14.33 22a8 8 0 0 1 8-8h99.3v52H14.33V22Z"></path></mask><path _ngcontent-ng-c4107163698="" fill="#202020" d="M14.33 22a8 8 0 0 1 8-8h99.3v52H14.33V22Z"></path><path _ngcontent-ng-c4107163698="" fill="#1D1D1D" d="M12.33 22c0-5.523 4.477-10 10-10h99.3v4h-99.3a6 6 0 0 0-6 6h-4Zm109.3 44H14.33h107.3Zm-109.3 0V22c0-5.523 4.477-10 10-10v4a6 6 0 0 0-6 6v44h-4Zm109.3-52v52-52Z" mask="url(#path-3-inside-1_1072_6379)"></path></g><mask _ngcontent-ng-c4107163698="" id="path-5-inside-2_1072_6379" fill="#fff"><path _ngcontent-ng-c4107163698="" d="M14.33 22a8 8 0 0 1 8-8h99.3v52H14.33V22Z"></path></mask><path _ngcontent-ng-c4107163698="" fill="#484848" d="M13.33 22a9 9 0 0 1 9-9h99.3v2h-99.3a7 7 0 0 0-7 7h-2Zm108.3 44H14.33h107.3Zm-108.3 0V22a9 9 0 0 1 9-9v2a7 7 0 0 0-7 7v44h-2Zm108.3-52v52-52Z" mask="url(#path-5-inside-2_1072_6379)"></path><mask _ngcontent-ng-c4107163698="" id="path-7-inside-3_1072_6379" fill="#fff"><path _ngcontent-ng-c4107163698="" d="M42.148 30a8 8 0 0 1 8-8h71.481v44H42.148V30Z"></path></mask><path _ngcontent-ng-c4107163698="" fill="url(#paint1_linear_1072_6379)" d="M42.148 30a8 8 0 0 1 8-8h71.481v44H42.148V30Z"></path><path _ngcontent-ng-c4107163698="" fill="#282828" d="M41.148 30a9 9 0 0 1 9-9h71.481v2H50.148a7 7 0 0 0-7 7h-2Zm80.481 36H42.148h79.481Zm-80.481 0V30a9 9 0 0 1 9-9v2a7 7 0 0 0-7 7v36h-2Zm80.481-44v44-44Z" mask="url(#path-7-inside-3_1072_6379)"></path><rect _ngcontent-ng-c4107163698="" width="11.922" height="12" x="22.606" y="22" fill="var(--cu-appearance-switcher-darkmode-primary)" rx="3"></rect><g _ngcontent-ng-c4107163698="" filter="url(#filter2_d_1072_6379)"><rect _ngcontent-ng-c4107163698="" width="11.922" height="12" x="22.606" y="46" fill="#181818" rx="3"></rect></g><rect _ngcontent-ng-c4107163698="" width="20.864" height="6" x="50.425" y="30" fill="#606060" rx="2"></rect><rect _ngcontent-ng-c4107163698="" width="34" height="6" x="50.425" y="40" fill="#3A3A3A" rx="2"></rect><rect _ngcontent-ng-c4107163698="" width="16" height="6" x="87.425" y="40" fill="var(--cu-appearance-switcher-darkmode-primary)" rx="2"></rect><rect _ngcontent-ng-c4107163698="" width="6.955" height="7" x="50.425" y="55" fill="var(--cu-appearance-switcher-darkmode-primary)" rx="3.477"></rect><rect _ngcontent-ng-c4107163698="" width="13.909" height="5" x="61.355" y="56" fill="#3A3A3A" rx="2.5"></rect><rect _ngcontent-ng-c4107163698="" width="25.831" height="5" x="77.25" y="56" fill="#3A3A3A" rx="2.5"></rect><g _ngcontent-ng-c4107163698="" filter="url(#filter3_d_1072_6379)"><path _ngcontent-ng-c4107163698="" fill="#181818" d="M22.606 65a3 3 0 0 1 3-3h5.923a3 3 0 0 1 3 3v1H22.606v-1Z"></path></g></g><path _ngcontent-ng-c4107163698="" stroke="#000" stroke-opacity=".055" d="M6.83 16a9.5 9.5 0 0 1 9.5-9.5h95.33a9.5 9.5 0 0 1 9.5 9.5v40a9.5 9.5 0 0 1-9.5 9.5H16.33a9.5 9.5 0 0 1-9.5-9.5V16Z"></path></g><defs _ngcontent-ng-c4107163698=""><filter _ngcontent-ng-c4107163698="" id="filter0_d_1072_6379" width="127.33" height="72" x=".33" y="0" color-interpolation-filters="sRGB" filterUnits="userSpaceOnUse"><feFlood _ngcontent-ng-c4107163698="" flood-opacity="0" result="BackgroundImageFix"></feFlood><feColorMatrix _ngcontent-ng-c4107163698="" in="SourceAlpha" result="hardAlpha" values="0 0 0 0 0 0 0 0 0 0 0 0 0 0 0 0 0 0 127 0"></feColorMatrix><feOffset _ngcontent-ng-c4107163698=""></feOffset><feGaussianBlur _ngcontent-ng-c4107163698="" stdDeviation="3"></feGaussianBlur><feComposite _ngcontent-ng-c4107163698="" in2="hardAlpha" operator="out"></feComposite><feColorMatrix _ngcontent-ng-c4107163698="" values="0 0 0 0 0 0 0 0 0 0 0 0 0 0 0 0 0 0 0.03 0"></feColorMatrix><feBlend _ngcontent-ng-c4107163698="" in2="BackgroundImageFix" result="effect1_dropShadow_1072_6379"></feBlend><feBlend _ngcontent-ng-c4107163698="" in="SourceGraphic" in2="effect1_dropShadow_1072_6379" result="shape"></feBlend></filter><filter _ngcontent-ng-c4107163698="" id="filter1_d_1072_6379" width="119.3" height="64" x="8.33" y="8" color-interpolation-filters="sRGB" filterUnits="userSpaceOnUse"><feFlood _ngcontent-ng-c4107163698="" flood-opacity="0" result="BackgroundImageFix"></feFlood><feColorMatrix _ngcontent-ng-c4107163698="" in="SourceAlpha" result="hardAlpha" values="0 0 0 0 0 0 0 0 0 0 0 0 0 0 0 0 0 0 127 0"></feColorMatrix><feOffset _ngcontent-ng-c4107163698=""></feOffset><feGaussianBlur _ngcontent-ng-c4107163698="" stdDeviation="3"></feGaussianBlur><feComposite _ngcontent-ng-c4107163698="" in2="hardAlpha" operator="out"></feComposite><feColorMatrix _ngcontent-ng-c4107163698="" values="0 0 0 0 0 0 0 0 0 0 0 0 0 0 0 0 0 0 0.03 0"></feColorMatrix><feBlend _ngcontent-ng-c4107163698="" in2="BackgroundImageFix" result="effect1_dropShadow_1072_6379"></feBlend><feBlend _ngcontent-ng-c4107163698="" in="SourceGraphic" in2="effect1_dropShadow_1072_6379" result="shape"></feBlend></filter><filter _ngcontent-ng-c4107163698="" id="filter2_d_1072_6379" width="23.922" height="24" x="16.606" y="40" color-interpolation-filters="sRGB" filterUnits="userSpaceOnUse"><feFlood _ngcontent-ng-c4107163698="" flood-opacity="0" result="BackgroundImageFix"></feFlood><feColorMatrix _ngcontent-ng-c4107163698="" in="SourceAlpha" result="hardAlpha" values="0 0 0 0 0 0 0 0 0 0 0 0 0 0 0 0 0 0 127 0"></feColorMatrix><feOffset _ngcontent-ng-c4107163698=""></feOffset><feGaussianBlur _ngcontent-ng-c4107163698="" stdDeviation="3"></feGaussianBlur><feComposite _ngcontent-ng-c4107163698="" in2="hardAlpha" operator="out"></feComposite><feColorMatrix _ngcontent-ng-c4107163698="" values="0 0 0 0 0 0 0 0 0 0 0 0 0 0 0 0 0 0 0.03 0"></feColorMatrix><feBlend _ngcontent-ng-c4107163698="" in2="BackgroundImageFix" result="effect1_dropShadow_1072_6379"></feBlend><feBlend _ngcontent-ng-c4107163698="" in="SourceGraphic" in2="effect1_dropShadow_1072_6379" result="shape"></feBlend></filter><filter _ngcontent-ng-c4107163698="" id="filter3_d_1072_6379" width="23.922" height="16" x="16.606" y="56" color-interpolation-filters="sRGB" filterUnits="userSpaceOnUse"><feFlood _ngcontent-ng-c4107163698="" flood-opacity="0" result="BackgroundImageFix"></feFlood><feColorMatrix _ngcontent-ng-c4107163698="" in="SourceAlpha" result="hardAlpha" values="0 0 0 0 0 0 0 0 0 0 0 0 0 0 0 0 0 0 127 0"></feColorMatrix><feOffset _ngcontent-ng-c4107163698=""></feOffset><feGaussianBlur _ngcontent-ng-c4107163698="" stdDeviation="3"></feGaussianBlur><feComposite _ngcontent-ng-c4107163698="" in2="hardAlpha" operator="out"></feComposite><feColorMatrix _ngcontent-ng-c4107163698="" values="0 0 0 0 0 0 0 0 0 0 0 0 0 0 0 0 0 0 0.03 0"></feColorMatrix><feBlend _ngcontent-ng-c4107163698="" in2="BackgroundImageFix" result="effect1_dropShadow_1072_6379"></feBlend><feBlend _ngcontent-ng-c4107163698="" in="SourceGraphic" in2="effect1_dropShadow_1072_6379" result="shape"></feBlend></filter><radialGradient _ngcontent-ng-c4107163698="" id="paint0_radial_1072_6379" cx="0" cy="0" r="1" gradientTransform="matrix(54.78177 60 -144.82688 132.2312 9.213 6)" gradientUnits="userSpaceOnUse"><stop _ngcontent-ng-c4107163698="" stop-color="#2A2A2A"></stop><stop _ngcontent-ng-c4107163698="" offset="1" stop-color="#484848"></stop></radialGradient><linearGradient _ngcontent-ng-c4107163698="" id="paint1_linear_1072_6379" x1="44.986" x2="101.743" y1="25.438" y2="82.157" gradientUnits="userSpaceOnUse"><stop _ngcontent-ng-c4107163698="" stop-color="#181818"></stop><stop _ngcontent-ng-c4107163698="" offset="1" stop-color="#282828"></stop></linearGradient><clipPath _ngcontent-ng-c4107163698="" id="clip0_1072_6379"><path _ngcontent-ng-c4107163698="" fill="#fff" d="M6.33 16c0-5.523 4.477-10 10-10h95.33c5.523 0 10 4.477 10 10v40c0 5.523-4.477 10-10 10H16.33c-5.523 0-10-4.477-10-10V16Z"></path></clipPath></defs></svg>