<svg _ngcontent-ng-c4107163698="" xmlns="http://www.w3.org/2000/svg" width="116" height="60" fill="none" viewBox="6 6 116 60" class="theme-illustration ng-star-inserted"><g _ngcontent-ng-c4107163698="" filter="url(#filter0_d_1072_6364)"><g _ngcontent-ng-c4107163698="" clip-path="url(#clip0_1072_6364)"><path _ngcontent-ng-c4107163698="" fill="url(#paint0_radial_1072_6364)" d="M6 16c0-5.523 4.477-10 10-10h95.33c5.523 0 10 4.477 10 10v40c0 5.523-4.477 10-10 10H16c-5.523 0-10-4.477-10-10V16Z"></path><g _ngcontent-ng-c4107163698="" filter="url(#filter1_d_1072_6364)"><mask _ngcontent-ng-c4107163698="" id="path-3-inside-1_1072_6364" fill="#fff"><path _ngcontent-ng-c4107163698="" d="M14 22a8 8 0 0 1 8-8h99.3v52H14V22Z"></path></mask><path _ngcontent-ng-c4107163698="" fill="#F9F9F9" d="M14 22a8 8 0 0 1 8-8h99.3v52H14V22Z"></path><path _ngcontent-ng-c4107163698="" fill="#fff" d="M12 22c0-5.523 4.477-10 10-10h99.3v4H22a6 6 0 0 0-6 6h-4Zm109.3 44H14h107.3ZM12 66V22c0-5.523 4.477-10 10-10v4a6 6 0 0 0-6 6v44h-4Zm109.3-52v52-52Z" mask="url(#path-3-inside-1_1072_6364)"></path></g><mask _ngcontent-ng-c4107163698="" id="path-5-inside-2_1072_6364" fill="#fff"><path _ngcontent-ng-c4107163698="" d="M14 22a8 8 0 0 1 8-8h99.3v52H14V22Z"></path></mask><path _ngcontent-ng-c4107163698="" fill="#CECECE" d="M13 22a9 9 0 0 1 9-9h99.3v2H22a7 7 0 0 0-7 7h-2Zm108.3 44H14h107.3ZM13 66V22a9 9 0 0 1 9-9v2a7 7 0 0 0-7 7v44h-2Zm108.3-52v52-52Z" mask="url(#path-5-inside-2_1072_6364)"></path><mask _ngcontent-ng-c4107163698="" id="path-7-inside-3_1072_6364" fill="#fff"><path _ngcontent-ng-c4107163698="" d="M41.817 30a8 8 0 0 1 8-8H121.3v44H41.817V30Z"></path></mask><path _ngcontent-ng-c4107163698="" fill="url(#paint1_linear_1072_6364)" d="M41.817 30a8 8 0 0 1 8-8H121.3v44H41.817V30Z"></path><path _ngcontent-ng-c4107163698="" fill="#F1F1F1" d="M40.817 30a9 9 0 0 1 9-9H121.3v2H49.817a7 7 0 0 0-7 7h-2ZM121.3 66H41.817 121.3Zm-80.482 0V30a9 9 0 0 1 9-9v2a7 7 0 0 0-7 7v36h-2ZM121.3 22v44-44Z" mask="url(#path-7-inside-3_1072_6364)"></path><rect _ngcontent-ng-c4107163698="" width="11.922" height="12" x="22.276" y="22" fill="var(--cu-appearance-switcher-lightmode-primary)" rx="3"></rect><g _ngcontent-ng-c4107163698="" filter="url(#filter2_d_1072_6364)"><rect _ngcontent-ng-c4107163698="" width="11.922" height="12" x="22.276" y="46" fill="#fff" rx="3"></rect></g><rect _ngcontent-ng-c4107163698="" width="20.864" height="6" x="50.095" y="30" fill="#BBB" rx="2"></rect><rect _ngcontent-ng-c4107163698="" width="34" height="6" x="50.095" y="40" fill="#D9D9D9" rx="2"></rect><rect _ngcontent-ng-c4107163698="" width="16" height="6" x="87.095" y="40" fill="var(--cu-appearance-switcher-lightmode-primary)" rx="2"></rect><rect _ngcontent-ng-c4107163698="" width="6.955" height="7" x="50.095" y="55" fill="var(--cu-appearance-switcher-lightmode-primary)" rx="3.477"></rect><rect _ngcontent-ng-c4107163698="" width="13.909" height="5" x="61.024" y="56" fill="#D9D9D9" rx="2.5"></rect><rect _ngcontent-ng-c4107163698="" width="25.831" height="5" x="76.92" y="56" fill="#D9D9D9" rx="2.5"></rect><g _ngcontent-ng-c4107163698="" filter="url(#filter3_d_1072_6364)"><path _ngcontent-ng-c4107163698="" fill="#fff" d="M22.276 65a3 3 0 0 1 3-3H31.2a3 3 0 0 1 3 3v1H22.276v-1Z"></path></g></g><path _ngcontent-ng-c4107163698="" stroke="#000" stroke-opacity=".055" d="M6.5 16A9.5 9.5 0 0 1 16 6.5h95.33a9.5 9.5 0 0 1 9.5 9.5v40a9.5 9.5 0 0 1-9.5 9.5H16A9.5 9.5 0 0 1 6.5 56V16Z"></path></g><defs _ngcontent-ng-c4107163698=""><filter _ngcontent-ng-c4107163698="" id="filter0_d_1072_6364" width="127.33" height="72" x="0" y="0" color-interpolation-filters="sRGB" filterUnits="userSpaceOnUse"><feFlood _ngcontent-ng-c4107163698="" flood-opacity="0" result="BackgroundImageFix"></feFlood><feColorMatrix _ngcontent-ng-c4107163698="" in="SourceAlpha" result="hardAlpha" values="0 0 0 0 0 0 0 0 0 0 0 0 0 0 0 0 0 0 127 0"></feColorMatrix><feOffset _ngcontent-ng-c4107163698=""></feOffset><feGaussianBlur _ngcontent-ng-c4107163698="" stdDeviation="3"></feGaussianBlur><feComposite _ngcontent-ng-c4107163698="" in2="hardAlpha" operator="out"></feComposite><feColorMatrix _ngcontent-ng-c4107163698="" values="0 0 0 0 0 0 0 0 0 0 0 0 0 0 0 0 0 0 0.03 0"></feColorMatrix><feBlend _ngcontent-ng-c4107163698="" in2="BackgroundImageFix" result="effect1_dropShadow_1072_6364"></feBlend><feBlend _ngcontent-ng-c4107163698="" in="SourceGraphic" in2="effect1_dropShadow_1072_6364" result="shape"></feBlend></filter><filter _ngcontent-ng-c4107163698="" id="filter1_d_1072_6364" width="119.3" height="64" x="8" y="8" color-interpolation-filters="sRGB" filterUnits="userSpaceOnUse"><feFlood _ngcontent-ng-c4107163698="" flood-opacity="0" result="BackgroundImageFix"></feFlood><feColorMatrix _ngcontent-ng-c4107163698="" in="SourceAlpha" result="hardAlpha" values="0 0 0 0 0 0 0 0 0 0 0 0 0 0 0 0 0 0 127 0"></feColorMatrix><feOffset _ngcontent-ng-c4107163698=""></feOffset><feGaussianBlur _ngcontent-ng-c4107163698="" stdDeviation="3"></feGaussianBlur><feComposite _ngcontent-ng-c4107163698="" in2="hardAlpha" operator="out"></feComposite><feColorMatrix _ngcontent-ng-c4107163698="" values="0 0 0 0 0 0 0 0 0 0 0 0 0 0 0 0 0 0 0.03 0"></feColorMatrix><feBlend _ngcontent-ng-c4107163698="" in2="BackgroundImageFix" result="effect1_dropShadow_1072_6364"></feBlend><feBlend _ngcontent-ng-c4107163698="" in="SourceGraphic" in2="effect1_dropShadow_1072_6364" result="shape"></feBlend></filter><filter _ngcontent-ng-c4107163698="" id="filter2_d_1072_6364" width="23.922" height="24" x="16.276" y="40" color-interpolation-filters="sRGB" filterUnits="userSpaceOnUse"><feFlood _ngcontent-ng-c4107163698="" flood-opacity="0" result="BackgroundImageFix"></feFlood><feColorMatrix _ngcontent-ng-c4107163698="" in="SourceAlpha" result="hardAlpha" values="0 0 0 0 0 0 0 0 0 0 0 0 0 0 0 0 0 0 127 0"></feColorMatrix><feOffset _ngcontent-ng-c4107163698=""></feOffset><feGaussianBlur _ngcontent-ng-c4107163698="" stdDeviation="3"></feGaussianBlur><feComposite _ngcontent-ng-c4107163698="" in2="hardAlpha" operator="out"></feComposite><feColorMatrix _ngcontent-ng-c4107163698="" values="0 0 0 0 0 0 0 0 0 0 0 0 0 0 0 0 0 0 0.03 0"></feColorMatrix><feBlend _ngcontent-ng-c4107163698="" in2="BackgroundImageFix" result="effect1_dropShadow_1072_6364"></feBlend><feBlend _ngcontent-ng-c4107163698="" in="SourceGraphic" in2="effect1_dropShadow_1072_6364" result="shape"></feBlend></filter><filter _ngcontent-ng-c4107163698="" id="filter3_d_1072_6364" width="23.922" height="16" x="16.276" y="56" color-interpolation-filters="sRGB" filterUnits="userSpaceOnUse"><feFlood _ngcontent-ng-c4107163698="" flood-opacity="0" result="BackgroundImageFix"></feFlood><feColorMatrix _ngcontent-ng-c4107163698="" in="SourceAlpha" result="hardAlpha" values="0 0 0 0 0 0 0 0 0 0 0 0 0 0 0 0 0 0 127 0"></feColorMatrix><feOffset _ngcontent-ng-c4107163698=""></feOffset><feGaussianBlur _ngcontent-ng-c4107163698="" stdDeviation="3"></feGaussianBlur><feComposite _ngcontent-ng-c4107163698="" in2="hardAlpha" operator="out"></feComposite><feColorMatrix _ngcontent-ng-c4107163698="" values="0 0 0 0 0 0 0 0 0 0 0 0 0 0 0 0 0 0 0.03 0"></feColorMatrix><feBlend _ngcontent-ng-c4107163698="" in2="BackgroundImageFix" result="effect1_dropShadow_1072_6364"></feBlend><feBlend _ngcontent-ng-c4107163698="" in="SourceGraphic" in2="effect1_dropShadow_1072_6364" result="shape"></feBlend></filter><radialGradient _ngcontent-ng-c4107163698="" id="paint0_radial_1072_6364" cx="0" cy="0" r="1" gradientTransform="matrix(54.78177 60 -144.82688 132.2312 8.883 6)" gradientUnits="userSpaceOnUse"><stop _ngcontent-ng-c4107163698="" stop-color="#E8E8E8"></stop><stop _ngcontent-ng-c4107163698="" offset="1" stop-color="#CECECE"></stop></radialGradient><linearGradient _ngcontent-ng-c4107163698="" id="paint1_linear_1072_6364" x1="44.656" x2="101.412" y1="25.438" y2="82.157" gradientUnits="userSpaceOnUse"><stop _ngcontent-ng-c4107163698="" stop-color="#fff"></stop><stop _ngcontent-ng-c4107163698="" offset="1" stop-color="#F9F9F9"></stop></linearGradient><clipPath _ngcontent-ng-c4107163698="" id="clip0_1072_6364"><path _ngcontent-ng-c4107163698="" fill="#fff" d="M6 16c0-5.523 4.477-10 10-10h95.33c5.523 0 10 4.477 10 10v40c0 5.523-4.477 10-10 10H16c-5.523 0-10-4.477-10-10V16Z"></path></clipPath></defs></svg>