
      <svg data-logo="logo" xmlns="http://www.w3.org/2000/svg" viewBox="0 0 125 43">
        <g id="logogram" transform="translate(0, 1) rotate(0) "><path fill-rule="evenodd" clip-rule="evenodd" d="M20.9053 40.0799C31.951 40.0799 40.9053 31.1256 40.9053 20.0799C40.9053 9.03427 31.951 0.0799561 20.9053 0.0799561C9.85956 0.0799561 0.905273 9.03427 0.905273 20.0799C0.905273 31.1256 9.85956 40.0799 20.9053 40.0799ZM27.1446 9.3968C27.4483 8.31801 26.4014 7.68008 25.4453 8.36125L12.0984 17.8695C11.0615 18.6082 11.2246 20.0799 12.3434 20.0799H15.858V20.0527H22.7078L17.1265 22.022L14.666 30.7631C14.3623 31.8419 15.4091 32.4798 16.3653 31.7986L29.7122 22.2904C30.7491 21.5517 30.5859 20.0799 29.4672 20.0799H24.1374L27.1446 9.3968Z" fill="#0173E5"/></g>
        <g id="logotype" transform="translate(43, 6)"><path fill="#000" d="M9.00 8.69L2.99 8.69L2.99 5.36L19.03 5.36L19.03 8.69L13.03 8.69L13.03 25L9.00 25L9.00 8.69ZM24.07 25.29L24.07 25.29Q22.67 25.29 21.56 24.80Q20.44 24.30 19.80 23.32Q19.16 22.34 19.16 20.87L19.16 20.87Q19.16 19.65 19.62 18.82Q20.07 17.99 20.86 17.49Q21.64 16.98 22.64 16.72Q23.63 16.46 24.73 16.35L24.73 16.35Q26.01 16.22 26.79 16.11Q27.57 16.00 27.94 15.75Q28.30 15.51 28.30 15.03L28.30 15.03L28.30 14.97Q28.30 14.33 28.04 13.90Q27.77 13.46 27.25 13.23Q26.73 13.00 25.99 13.00L25.99 13.00Q25.23 13.00 24.66 13.23Q24.09 13.46 23.74 13.85Q23.38 14.23 23.21 14.70L23.21 14.70L19.59 14.11Q19.97 12.82 20.85 11.92Q21.73 11.03 23.05 10.55Q24.36 10.08 26.01 10.08L26.01 10.08Q27.19 10.08 28.31 10.36Q29.43 10.64 30.32 11.24Q31.21 11.83 31.73 12.79Q32.25 13.74 32.25 15.07L32.25 15.07L32.25 25L28.51 25L28.51 22.96L28.38 22.96Q28.02 23.64 27.43 24.16Q26.84 24.68 26.00 24.99Q25.16 25.29 24.07 25.29ZM25.19 22.51L25.19 22.51Q26.12 22.51 26.83 22.14Q27.54 21.77 27.93 21.14Q28.33 20.50 28.33 19.73L28.33 19.73L28.33 18.13Q28.15 18.26 27.80 18.37Q27.44 18.47 27.01 18.55Q26.57 18.63 26.15 18.70Q25.73 18.76 25.40 18.80L25.40 18.80Q24.67 18.91 24.12 19.15Q23.57 19.38 23.26 19.77Q22.96 20.16 22.96 20.77L22.96 20.77Q22.96 21.33 23.25 21.72Q23.54 22.11 24.04 22.31Q24.54 22.51 25.19 22.51ZM39.73 25.29L39.73 25.29Q37.95 25.29 36.58 24.78Q35.21 24.27 34.34 23.31Q33.47 22.34 33.22 20.97L33.22 20.97L36.89 20.33Q37.18 21.36 37.91 21.88Q38.63 22.39 39.85 22.39L39.85 22.39Q40.98 22.39 41.63 21.96Q42.29 21.53 42.29 20.87L42.29 20.87Q42.29 20.29 41.82 19.92Q41.35 19.56 40.39 19.36L40.39 19.36L37.84 18.83Q35.71 18.40 34.65 17.35Q33.60 16.30 33.60 14.65L33.60 14.65Q33.60 13.23 34.38 12.21Q35.15 11.18 36.54 10.63Q37.92 10.08 39.79 10.08L39.79 10.08Q41.53 10.08 42.81 10.56Q44.09 11.04 44.88 11.92Q45.67 12.81 45.94 14.00L45.94 14.00L42.43 14.62Q42.21 13.87 41.57 13.39Q40.93 12.91 39.85 12.91L39.85 12.91Q38.87 12.91 38.21 13.32Q37.55 13.73 37.55 14.41L37.55 14.41Q37.55 14.97 37.98 15.35Q38.41 15.73 39.45 15.94L39.45 15.94L42.10 16.47Q44.24 16.91 45.28 17.89Q46.32 18.87 46.32 20.45L46.32 20.45Q46.32 21.90 45.48 22.99Q44.63 24.08 43.15 24.68Q41.67 25.29 39.73 25.29ZM53.52 17.66L50.83 20.69L50.83 15.93L51.42 15.93L56.25 10.26L60.82 10.26L54.45 17.66L53.52 17.66ZM51.20 25L47.24 25L47.24 5.36L51.20 5.36L51.20 25ZM61.10 25L56.44 25L52.01 18.54L54.66 15.73L61.10 25ZM61.15 5.36L65.10 5.36L65.10 25L61.15 25L61.15 5.36ZM66.60 30.22L66.60 30.22L67.51 27.24L68.00 27.36Q68.79 27.57 69.41 27.48Q70.03 27.39 70.41 26.98Q70.78 26.57 70.86 25.83L70.86 25.83L70.97 25.04L65.43 10.26L69.64 10.26L72.12 17.91Q72.56 19.36 72.85 20.81Q73.13 22.26 73.50 23.84L73.50 23.84L72.58 23.84Q72.93 22.26 73.29 20.80Q73.64 19.34 74.12 17.91L74.12 17.91L76.70 10.26L80.86 10.26L74.59 26.74Q74.15 27.93 73.45 28.80Q72.75 29.67 71.71 30.14Q70.67 30.62 69.19 30.62L69.19 30.62Q68.40 30.62 67.71 30.50Q67.03 30.39 66.60 30.22Z"/></g>
        
      </svg>
    